<?xml version="1.0" encoding="utf-8"?>
<!-- Generator: Adobe Illustrator 19.2.1, SVG Export Plug-In . SVG Version: 6.00 Build 0)  -->
<svg version="1.1" id="Layer_1" xmlns="http://www.w3.org/2000/svg" xmlns:xlink="http://www.w3.org/1999/xlink" x="0px" y="0px"
	 viewBox="0 0 32 32" style="enable-background:new 0 0 32 32;" xml:space="preserve">
<style type="text/css">
	.st0{fill:#FFFFFF;fill-opacity:0;}
	.st1{fill:#B54385;}
</style>
<rect class="st0" width="32" height="32"/>
<rect class="st0" width="32" height="32"/>
<path class="st1" d="M5,30.2V2h18v9.1h2V2c0-1.1-0.9-2-2-2H5C3.9,0,3,0.9,3,2v28.1c0,1.1,0.9,2,2,2h4v-2H5V30.2z"/>
<g>
	<g>
		<path class="st1" d="M27.5,14.8l0.9,0.4l-5.6,13.3L22,29l-0.2-1L27.5,14.8 M26.4,12.1l-6.6,15.7l0.6,3.8c0,0.2,0.4,0.4,0.7,0.4
			c0.1,0,0.2,0,0.2-0.1l3.1-2.2L31,14.1L26.4,12.1L26.4,12.1z"/>
	</g>
</g>
<circle class="st1" cx="12" cy="31.2" r="1"/>
<circle class="st1" cx="15" cy="31" r="1"/>
<circle class="st1" cx="18" cy="31.2" r="1"/>
<rect x="7" y="6.1" class="st1" width="14.1" height="2"/>
<rect x="7" y="12.1" class="st1" width="14.1" height="2"/>
<rect x="7" y="18.2" class="st1" width="14.1" height="2"/>
</svg>
