<svg id="Layer_1" data-name="Layer 1" xmlns="http://www.w3.org/2000/svg" xmlns:xlink="http://www.w3.org/1999/xlink" viewBox="0 0 105.17 102.83"><defs><style>.cls-1{fill:#fdfeff;}.cls-2{mask:url(#mask);}.cls-3{fill:#aeaeae;}.cls-4{fill:url(#linear-gradient);}.cls-5{fill:#b24285;}.cls-6{fill:#939598;}.cls-7{fill:#bdbebf;}.cls-8{filter:url(#luminosity-invert-noclip);}</style><filter id="luminosity-invert-noclip" x="-6" y="0.08" width="105.17" height="102.83" filterUnits="userSpaceOnUse" color-interpolation-filters="sRGB"><feColorMatrix values="-1 0 0 0 1 0 -1 0 0 1 0 0 -1 0 1 0 0 0 1 0" result="invert"/><feFlood flood-color="#fff" result="bg"/><feBlend in="invert" in2="bg"/></filter><mask id="mask" x="0" y="0" width="105.17" height="102.83" maskUnits="userSpaceOnUse"><g class="cls-8"><g transform="translate(6 -0.08)"><rect class="cls-1" x="-6" y="33.92" width="105.17" height="69"/></g></g></mask><linearGradient id="linear-gradient" y1="19.08" x2="91" y2="19.08" gradientUnits="userSpaceOnUse"><stop offset="0" stop-color="#b54385"/><stop offset="1" stop-color="#8b3a84"/></linearGradient></defs><title>CalendarTop</title><g class="cls-2"><path class="cls-3" d="M85,5.08H8a7,7,0,0,0-7,7v77a7,7,0,0,0,7,7H85a7,7,0,0,0,7-7v-77A7,7,0,0,0,85,5.08Zm-67,10a3,3,0,1,1,3-3A3,3,0,0,1,18,15.09Zm11,0a3,3,0,1,1,3-3A3,3,0,0,1,29,15.09Zm11,0a3,3,0,1,1,3-3A3,3,0,0,1,40,15.09Zm11,0a3,3,0,1,1,3-3A3,3,0,0,1,51,15.09Zm11,0a3,3,0,1,1,3-3A3,3,0,0,1,62,15.09Zm11,0a3,3,0,1,1,3-3A3,3,0,0,1,73,15.09Z" transform="translate(6 -0.08)"/><path class="cls-1" d="M84,4.08H7a7,7,0,0,0-7,7v77a7,7,0,0,0,7,7H84a7,7,0,0,0,7-7v-77A7,7,0,0,0,84,4.08Zm-66,11a3,3,0,1,1,3-3A3,3,0,0,1,18,15.09Zm11,0a3,3,0,1,1,3-3A3,3,0,0,1,29,15.09Zm11,0a3,3,0,1,1,3-3A3,3,0,0,1,40,15.09Zm11,0a3,3,0,1,1,3-3A3,3,0,0,1,51,15.09Zm11,0a3,3,0,1,1,3-3A3,3,0,0,1,62,15.09Zm11,0a3,3,0,1,1,3-3A3,3,0,0,1,73,15.09Z" transform="translate(6 -0.08)"/><path class="cls-4" d="M84,4.08H7a7,7,0,0,0-7,7v23H91v-23A7,7,0,0,0,84,4.08Zm-66,11a3,3,0,1,1,3-3A3,3,0,0,1,18,15.09Zm11,0a3,3,0,1,1,3-3A3,3,0,0,1,29,15.09Zm11,0a3,3,0,1,1,3-3A3,3,0,0,1,40,15.09Zm11,0a3,3,0,1,1,3-3A3,3,0,0,1,51,15.09Zm11,0a3,3,0,1,1,3-3A3,3,0,0,1,62,15.09Zm11,0a3,3,0,1,1,3-3A3,3,0,0,1,73,15.09Z" transform="translate(6 -0.08)"/><path class="cls-5" d="M84,5.08a6,6,0,0,1,6,6v77a6,6,0,0,1-6,6H7a6,6,0,0,1-6-6v-77a6,6,0,0,1,6-6H84m0-1H7a7,7,0,0,0-7,7v77a7,7,0,0,0,7,7H84a7,7,0,0,0,7-7v-77a7,7,0,0,0-7-7h0Z" transform="translate(6 -0.08)"/><rect class="cls-6" x="22" width="4" height="14" rx="2" ry="2"/><rect class="cls-7" x="23.84" y="1.3" width="1.3" height="10.09" rx="0.65" ry="0.65"/><rect class="cls-6" x="33" width="4" height="14" rx="2" ry="2"/><rect class="cls-7" x="34.84" y="1.3" width="1.3" height="10.09" rx="0.65" ry="0.65"/><rect class="cls-6" x="44" width="4" height="14" rx="2" ry="2"/><rect class="cls-7" x="45.84" y="1.3" width="1.3" height="10.09" rx="0.65" ry="0.65"/><rect class="cls-6" x="55" width="4" height="14" rx="2" ry="2"/><rect class="cls-7" x="56.84" y="1.3" width="1.3" height="10.09" rx="0.65" ry="0.65"/><rect class="cls-6" x="66" width="4" height="14" rx="2" ry="2"/><rect class="cls-7" x="67.84" y="1.3" width="1.3" height="10.09" rx="0.65" ry="0.65"/><rect class="cls-6" x="77" width="4" height="14" rx="2" ry="2"/><rect class="cls-7" x="78.84" y="1.3" width="1.3" height="10.09" rx="0.65" ry="0.65"/><rect class="cls-1" y="33.83" width="105.17" height="69"/></g></svg>