<svg id="Layer_1" data-name="Layer 1" xmlns="http://www.w3.org/2000/svg" xmlns:xlink="http://www.w3.org/1999/xlink" viewBox="0 0 92 34"><defs><style>.cls-1{fill:#adadad;}.cls-2{fill:url(#linear-gradient);}.cls-3{fill:#929497;}.cls-4{fill:#bcbcbe;}</style><linearGradient id="linear-gradient" y1="19" x2="91" y2="19" gradientUnits="userSpaceOnUse"><stop offset="0" stop-color="#bcbcbe"/><stop offset="1" stop-color="#919395"/></linearGradient></defs><title>CalendarTopGray</title><path class="cls-1" d="M92,34V12a7,7,0,0,0-7-7H8a7,7,0,0,0-7,7V34H92ZM73,9a3,3,0,1,1-3,3A3,3,0,0,1,73,9ZM62,9a3,3,0,1,1-3,3A3,3,0,0,1,62,9ZM51,9a3,3,0,1,1-3,3A3,3,0,0,1,51,9ZM40,9a3,3,0,1,1-3,3A3,3,0,0,1,40,9ZM29,9a3,3,0,1,1-3,3A3,3,0,0,1,29,9ZM18,9a3,3,0,1,1-3,3A3,3,0,0,1,18,9Z"/><path class="cls-2" d="M84,4H7a7,7,0,0,0-7,7V34H91V11A7,7,0,0,0,84,4ZM18,15a3,3,0,1,1,3-3A3,3,0,0,1,18,15Zm11,0a3,3,0,1,1,3-3A3,3,0,0,1,29,15Zm11,0a3,3,0,1,1,3-3A3,3,0,0,1,40,15Zm11,0a3,3,0,1,1,3-3A3,3,0,0,1,51,15Zm11,0a3,3,0,1,1,3-3A3,3,0,0,1,62,15Zm11,0a3,3,0,1,1,3-3A3,3,0,0,1,73,15Z"/><path class="cls-3" d="M18,15a3,3,0,0,1-2.95-2.5,3,3,0,1,0,5.9,0A3,3,0,0,1,18,15Z"/><path class="cls-3" d="M29,15a3,3,0,0,1-2.95-2.5,3,3,0,1,0,5.9,0A3,3,0,0,1,29,15Z"/><path class="cls-3" d="M40,15a3,3,0,0,1-2.95-2.5,3,3,0,1,0,5.9,0A3,3,0,0,1,40,15Z"/><path class="cls-3" d="M51,15a3,3,0,0,1-2.95-2.5,3,3,0,1,0,5.9,0A3,3,0,0,1,51,15Z"/><path class="cls-3" d="M62,15a3,3,0,0,1-2.95-2.5,3,3,0,1,0,5.9,0A3,3,0,0,1,62,15Z"/><path class="cls-3" d="M73,15a3,3,0,0,1-2.95-2.5,3,3,0,1,0,5.9,0A3,3,0,0,1,73,15Z"/><rect class="cls-3" x="16" width="4" height="14" rx="2" ry="2"/><rect class="cls-4" x="17.84" y="1.3" width="1.3" height="10.09" rx="0.65" ry="0.65"/><rect class="cls-3" x="27" width="4" height="14" rx="2" ry="2"/><rect class="cls-4" x="28.84" y="1.3" width="1.3" height="10.09" rx="0.65" ry="0.65"/><rect class="cls-3" x="38" width="4" height="14" rx="2" ry="2"/><rect class="cls-4" x="39.84" y="1.3" width="1.3" height="10.09" rx="0.65" ry="0.65"/><rect class="cls-3" x="49" width="4" height="14" rx="2" ry="2"/><rect class="cls-4" x="50.84" y="1.3" width="1.3" height="10.09" rx="0.65" ry="0.65"/><rect class="cls-3" x="60" width="4" height="14" rx="2" ry="2"/><rect class="cls-4" x="61.84" y="1.3" width="1.3" height="10.09" rx="0.65" ry="0.65"/><rect class="cls-3" x="71" width="4" height="14" rx="2" ry="2"/><rect class="cls-4" x="72.84" y="1.3" width="1.3" height="10.09" rx="0.65" ry="0.65"/></svg>