<?xml version="1.0" encoding="utf-8"?>
<!-- Generator: Adobe Illustrator 19.2.1, SVG Export Plug-In . SVG Version: 6.00 Build 0)  -->
<svg version="1.1" id="Layer_1" xmlns="http://www.w3.org/2000/svg" xmlns:xlink="http://www.w3.org/1999/xlink" x="0px" y="0px"
	 viewBox="0 0 32 32" style="enable-background:new 0 0 32 32;" xml:space="preserve">
<style type="text/css">
	.st0{fill:#FFFFFF;fill-opacity:0;}
	.st1{fill:#B54385;}
</style>
<rect class="st0" width="32" height="32"/>
<rect class="st0" width="32" height="32"/>
<rect x="8" y="6" class="st1" width="14" height="2"/>
<rect x="8" y="11" class="st1" width="14" height="2"/>
<rect x="8" y="16" class="st1" width="10.5" height="2"/>
<g>
	<path class="st1" d="M25,28c-0.3,0-0.7,0-1-0.1V30H6V2h18v14.1c0.3-0.1,0.7-0.1,1-0.1s0.7,0,1,0.1V2c0-1.1-0.9-2-2-2H6
		C4.9,0,4,0.9,4,2v28c0,1.1,0.9,2,2,2h18c1.1,0,2-0.9,2-2v-2.1C25.7,28,25.3,28,25,28z"/>
	<path class="st1" d="M25,17c2.8,0,5,2.3,5,5s-2.3,5-5,5s-5-2.3-5-5S22.2,17,25,17 M25,15c-3.9,0-7,3.1-7,7s3.1,7,7,7s7-3.1,7-7
		S28.9,15,25,15L25,15z"/>
</g>
<g>
	<path class="st1" d="M24.6,25l-2.9-2.3c-0.4-0.3-0.5-1-0.2-1.4s1-0.5,1.4-0.2l1.5,1.2l2.8-3.1c0.4-0.4,1-0.4,1.4-0.1
		c0.4,0.4,0.4,1,0.1,1.4L24.6,25z"/>
</g>
</svg>
