<?xml version="1.0" encoding="utf-8"?>
<!-- Generator: Adobe Illustrator 19.2.1, SVG Export Plug-In . SVG Version: 6.00 Build 0)  -->
<svg version="1.1" id="Layer_1" xmlns="http://www.w3.org/2000/svg" xmlns:xlink="http://www.w3.org/1999/xlink" x="0px" y="0px"
	 viewBox="0 0 60 60" style="enable-background:new 0 0 60 60;" xml:space="preserve">
<style type="text/css">
	.st0{fill:#B54385;}
</style>
<path class="st0" d="M53,17v38H27V17H53 M54,14H26c-1.1,0-2,0.9-2,2v40c0,1.1,0.9,2,2,2h28c1.1,0,2-0.9,2-2V16
	C56,14.9,55.1,14,54,14L54,14z"/>
<path class="st0" d="M7,43V5h26v3h3V4c0-1.1-0.9-2-2-2H6C4.9,2,4,2.9,4,4v40c0,1.1,0.9,2,2,2h9v-3H7z"/>
<path class="st0" d="M44,8H16c-1.1,0-2,0.9-2,2v40c0,1.1,0.9,2,2,2h8v-3h-7V11h26v3h3v-4C46,8.9,45.1,8,44,8z"/>
<g>
	<path class="st0" d="M48.2,38.2v12h-12v-12H48.2 M49.2,37.2h-14v14h14V37.2L49.2,37.2z"/>
</g>
<g>
	<path class="st0" d="M41.8,47.5L37.3,43c-0.4-0.4-0.4-1,0-1.4c0.4-0.4,1-0.4,1.4,0l3.3,3.2l8.3-7c0.4-0.4,1.1-0.3,1.4,0.1
		c0.4,0.4,0.3,1.1-0.1,1.4L41.8,47.5z"/>
</g>
</svg>
