<?xml version="1.0" encoding="utf-8"?>
<!-- Generator: Adobe Illustrator 19.2.1, SVG Export Plug-In . SVG Version: 6.00 Build 0)  -->
<svg version="1.1" id="Layer_1" xmlns="http://www.w3.org/2000/svg" xmlns:xlink="http://www.w3.org/1999/xlink" x="0px" y="0px"
	 viewBox="0 0 32 32" style="enable-background:new 0 0 32 32;" xml:space="preserve">
<style type="text/css">
	.st0{fill:#FFFFFF;fill-opacity:0;}
	.st1{fill:#B54385;}
</style>
<rect class="st0" width="32" height="32"/>
<rect class="st0" width="32" height="32"/>
<polygon class="st1" points="0,16.3 12.1,16.3 13,14.3 0,14.3 "/>
<polygon class="st1" points="1.8,21.3 9.9,21.3 10.8,19.3 1.8,19.3 "/>
<polygon class="st1" points="2.9,9.3 2.9,11.3 14.1,11.3 14.9,9.3 "/>
<path class="st1" d="M24.2,16h3.6v-2H26c0.3-0.8,0.4-1.6,0.1-2.4c-0.5-1.5-2.1-3.8-8-2.3l0.2,1l0.2,1h0.1c1.5-0.4,5-1.1,5.6,0.9
	c0.2,0.7-0.1,1.4-0.7,1.8h-5.8v2h3.1l-0.1,0.1c-0.4,0.4-0.7,0.7-1,1h-2.4v2h1.4c-0.2,0.6-0.2,1.1,0,1.7c0.4,1.3,1.5,2.3,2.9,2.5
	c0.6,0.1,1.1,0.1,1.7,0.1c1.4,0,2.8-0.2,4.1-0.6l-0.6-1.9c-1.6,0.5-3.3,0.6-4.9,0.4c-0.6-0.1-1.1-0.4-1.4-1c-0.1-0.4,0-0.8,0.2-1.2
	h6.6v-2h-5.6C22.6,16.2,23.5,16.1,24.2,16z"/>
<path class="st1" d="M30,5.2H18.5l-0.9,2H30v18H10l-0.9,2H30c1.1,0,2-0.9,2-2v-18C32,6.1,31.1,5.2,30,5.2z"/>
</svg>
