<?xml version="1.0" encoding="utf-8"?>
<!-- Generator: Adobe Illustrator 19.2.1, SVG Export Plug-In . SVG Version: 6.00 Build 0)  -->
<svg version="1.1" id="Layer_1" xmlns="http://www.w3.org/2000/svg" xmlns:xlink="http://www.w3.org/1999/xlink" x="0px" y="0px"
	 viewBox="0 0 32 32" style="enable-background:new 0 0 32 32;" xml:space="preserve">
<style type="text/css">
	.st0{fill:none;}
	.st1{fill:#B54385;}
</style>
<rect class="st0" width="32" height="32"/>
<g>
	<path class="st1" d="M26.9,18.1v4h-8v-4H26.9 M27.4,16.1h-9c-0.8,0-1.5,0.7-1.5,1.5v5c0,0.8,0.7,1.5,1.5,1.5h9
		c0.8,0,1.5-0.7,1.5-1.5v-5C28.9,16.7,28.3,16.1,27.4,16.1L27.4,16.1z"/>
</g>
<g>
	<path class="st1" d="M26.9,28.1v2h-8v-2H26.9 M27.9,26.1h-10c-0.6,0-1,0.4-1,1v4c0,0.6,0.4,1,1,1h10c0.6,0,1-0.4,1-1v-4
		C28.9,26.5,28.5,26.1,27.9,26.1L27.9,26.1z"/>
</g>
<g>
	<path class="st1" d="M31,28.8c-0.5,0-1-0.4-1-1v-2.2c0-0.8-0.8-1.5-1.8-1.5H17.8c-1,0-1.8,0.7-1.8,1.5v2.2c0,0.5-0.4,1-1,1
		s-1-0.4-1-1v-2.2c0-1.9,1.7-3.5,3.8-3.5h10.5c2.1,0,3.8,1.6,3.8,3.5v2.2C32,28.3,31.6,28.8,31,28.8z"/>
</g>
<g>
	<path class="st1" d="M12.4,32H4.8C3.3,32,2,30.7,2,29.1V2.9C2,1.3,3.3,0,4.8,0h16.4C22.7,0,24,1.3,24,2.9v10.2c0,0.6-0.4,1-1,1
		s-1-0.4-1-1V2.9C22,2.4,21.6,2,21.2,2H4.8C4.4,2,4,2.4,4,2.9v26.3C4,29.6,4.4,30,4.8,30h7.6c0.6,0,1,0.4,1,1S13,32,12.4,32z"/>
</g>
</svg>
