<?xml version="1.0" encoding="utf-8"?>
<!-- Generator: Adobe Illustrator 19.2.1, SVG Export Plug-In . SVG Version: 6.00 Build 0)  -->
<svg version="1.1" id="Layer_1" xmlns="http://www.w3.org/2000/svg" xmlns:xlink="http://www.w3.org/1999/xlink" x="0px" y="0px"
	 viewBox="0 0 60 60" style="enable-background:new 0 0 60 60;" xml:space="preserve">
<style type="text/css">
	.st0{fill:none;}
	.st1{fill:#B54285;}
</style>
<rect class="st0" width="60" height="60"/>
<g>
	<path class="st1" d="M25.6,41.9c-0.6,0-0.9-0.2-1.3-0.6L12.5,29.7c-0.8-0.8-0.8-1.9,0-2.6c0.8-0.8,1.9-0.8,2.6,0l10.5,10.3
		l19.3-18.8c0.8-0.8,1.9-0.8,2.6,0s0.8,1.9,0,2.6L26.9,41.3C26.5,41.7,26,41.9,25.6,41.9z"/>
</g>
<path class="st1" d="M30,3.8c14.4,0,26.3,11.8,26.3,26.3S44.4,56.3,30,56.3S3.8,44.4,3.8,30S15.6,3.8,30,3.8 M30,0
	C13.5,0,0,13.5,0,30s13.5,30,30,30s30-13.5,30-30S46.5,0,30,0L30,0z"/>
</svg>
